<svg xmlns="http://www.w3.org/2000/svg" width="251px" height="48px" viewBox="0 0 251 48" version="1.1">
    <title>Bourbon</title>
    <defs>
        <linearGradient x1="35.6351926%" y1="-2.08864266%" x2="81.5317397%" y2="137.781163%" id="linearGradient-1">
            <stop stop-color="#FF992E" offset="0%"/>
            <stop stop-color="#FF4C2E" offset="63.5%"/>
            <stop stop-color="#E3302E" offset="100%"/>
        </linearGradient>
    </defs>
    <g id="Page-1" stroke="none" stroke-width="1" fill="none" fill-rule="evenodd">
        <g id="Bourbon-final" transform="translate(1.000000, 0.000000)">
            <path d="M9.57142857 47.8 C6.71428571 47.8 4.3 45.6 3.9 42.8 C3.85714286 42.4 -0.1 6.6 -0.1 6.2 C-0.142857143 6.1 -0.2 6 -0.2 5.9 L-0.19047619 4.7 C-0.19047619 3.7 0.2 2.7 1 2.1 C1.66666667 1.2 3.2 0 24.1 0 C44.952381 0 46.5 1.2 47.2 2.1 C47.9047619 2.8 48.3 3.7 48.3 4.8 L48.2857143 5.8 C48.2857143 6 48.3 6.1 48.2 6.3 L43.952381 42.8 C43.952381 42.9 43.9 43 43.9 43.1 C43.3809524 45.8 41 47.8 38.3 47.8 L9.57142857 47.8 L9.57142857 47.8 Z" id="Shape" fill="#E5D1BF"/>
            <g id="Group" transform="translate(1.428571, 1.440000)">
                <g>
                    <path d="M45.3809524 3.3 C45.3809524 2.6 45.1 2 44.7 1.6 C43.6666667 0.4 34.2 -0 22.6 -0 C11.047619 -0 1.6 0.3 0.5 1.5 C0.0952380952 2 -0.2 2.5 -0.2 3.2 L-0.19047619 4.3 C-0.19047619 4.4 -0.2 4.5 -0.1 4.6 C-0.142857143 4.7 3.9 41.1 3.9 41.1 C4.19047619 43.2 6 44.8 8.1 44.8 L36.8095238 44.8 C39 44.8 40.8 43.2 41 41.1 L41.047619 41.1 L45.3333333 4.6 L45.3333333 4.3 L45.3333333 3.3 L45.3809524 3.3 Z" id="Shape" fill="#FEF9EC"/>
                    <ellipse id="Oval" fill="#E5D1BF" cx="22.5" cy="3" rx="20.1" ry="1.1"/>
                </g>
                <path d="M39 37.6 C38.952381 38.9 38 39.9 36.7 39.9 L8.28571429 39.9 C7.04761905 39.9 6.1 38.9 6 37.6 C5.80952381 34.2 4.6 24 4.6 24 C4.57142857 23.1 5 22.6 6 22.6 L39 22.6 C39.9047619 22.6 40.4 23.1 40.4 24 C40.4285714 24 39.1 34.2 39 37.6 L39 37.6 Z" id="Shape" fill="url(#linearGradient-1)"/>
            </g>
            <g id="Group" fill="#EC3719">
                <path d="M69.4 40.1 C68.1 40.1 67.5 39.1 67.5 38.2 C67.5 37.2 68.1 36.3 69.4 36.3 L72.2 36.3 L72.2 10.4 L69.4 10.4 C68.1 10.4 67.5 9.5 67.5 8.5 C67.5 7.5 68.1 6.5 69.4 6.5 L87.6 6.5 C92.6 6.5 98.6 6.8 98.6 15.2 C98.7 18.8 96.6 21.5 93.7 22.2 C96.9 22.7 100.9 24.6 100.9 30.3 C101 39.3 93.4 40.2 87.6 40.2 L69.4 40.2 L69.4 40.1 ZM87.6 20.6 C91 20.6 94.4 19.6 94.4 15.5 C94.4 10.6 91 10.4 87.6 10.4 L76.3 10.4 L76.3 20.6 L87.6 20.6 L87.6 20.6 ZM76.3 24.5 L76.3 36.3 L87.6 36.3 C91.1 36.3 96.6 35.9 96.6 30.2 C96.6 25.4 93 24.5 87.6 24.5 L76.3 24.5 L76.3 24.5 Z" id="Shape"/>
                <path d="M114.2 40.7 C107.6 40.7 103.1 36 103.1 30.1 C103.1 24.2 107.6 19.5 114.2 19.5 C120.8 19.5 125.2 24.2 125.2 30.1 C125.3 36 120.8 40.7 114.2 40.7 L114.2 40.7 ZM114.2 23 C110 23 107.2 26.2 107.2 30.1 C107.2 34.1 110 37.3 114.2 37.3 C118.3 37.3 121.2 34.1 121.2 30.1 C121.2 26.2 118.3 23 114.2 23 L114.2 23 Z" id="Shape"/>
                <path d="M127.3 23.6 C126 23.6 125.5 22.8 125.5 21.8 C125.5 20.9 126.1 20 127.3 20 L131.3 20 C132.4 20 133.2 20.7 133.2 21.8 L133.2 30.3 C133.2 35 135.7 36.8 139.4 36.8 C142.8 36.8 144.9 34.5 145.1 30.5 L145.1 23.6 L143 23.6 C141.9 23.6 141.3 22.7 141.3 21.8 C141.3 20.9 141.9 20 143 20 L147.1 20 C148.1 20 149 20.6 149 21.8 L149 36.5 L151 36.5 C152.2 36.5 152.8 37.4 152.8 38.3 C152.8 39.2 152.2 40.1 151 40.1 L147 40.1 C146 40.1 145.1 39.5 145.1 38.3 L145.1 35.8 C144.9 38.3 142.2 40.6 138.5 40.6 C132.7 40.6 129.3 37.7 129.3 30.4 L129.3 23.5 L127.3 23.5 L127.3 23.6 Z" id="Shape"/>
                <path d="M159.5 20 C160.5 20 161.5 20.6 161.5 21.9 L161.5 23.9 C162.6 21.7 165.2 19.4 168.7 19.6 C170.9 19.7 172.3 21.1 172.1 22.7 C172.1 23.1 172 23.5 171.7 23.9 C170.4 26.2 166.7 24.9 167.3 22.4 C164.6 22.8 162 25.1 161.5 29.9 L161.5 36.6 L163.5 36.6 C164.8 36.6 165.3 37.5 165.3 38.4 C165.3 39.3 164.7 40.2 163.5 40.2 L155.6 40.2 C154.3 40.2 153.7 39.3 153.7 38.4 C153.8 37.5 154.3 36.6 155.6 36.6 L157.6 36.6 L157.6 23.6 L155.6 23.6 C154.3 23.6 153.7 22.7 153.7 21.8 C153.8 20.9 154.3 20 155.6 20 L159.5 20 L159.5 20 Z" id="Shape"/>
                <path d="M197.5 30.1 C197.5 35.7 193.5 40.7 187.2 40.7 C183.8 40.7 181.1 39.2 179.4 36.7 L179.4 38.4 C179.4 39.6 178.5 40.2 177.5 40.2 L173.5 40.2 C172.2 40.2 171.6 39.3 171.6 38.4 C171.7 37.5 172.2 36.6 173.5 36.6 L175.5 36.6 L175.5 8.9 L173.5 8.9 C172.2 8.9 171.6 8 171.6 7.1 C171.7 6.2 172.2 5.3 173.5 5.3 L177.5 5.3 C178.5 5.3 179.4 6 179.4 7.2 L179.4 23.6 C181.1 21.1 183.8 19.6 187.2 19.6 C193.6 19.6 197.5 24.5 197.5 30.1 L197.5 30.1 ZM179.5 29.8 L179.5 30.2 C179.5 34.4 182.6 37.3 186.6 37.3 C190.5 37.3 193.4 34.2 193.4 30.1 C193.4 26.1 190.4 23 186.5 23 C182.7 23 179.6 25.7 179.5 29.8 L179.5 29.8 Z" id="Shape"/>
                <path d="M210.5 40.7 C203.9 40.7 199.4 36 199.4 30.1 C199.4 24.2 203.8 19.5 210.5 19.5 C217.1 19.5 221.6 24.2 221.6 30.1 C221.5 36 217 40.7 210.5 40.7 L210.5 40.7 ZM210.5 23 C206.3 23 203.5 26.2 203.5 30.1 C203.5 34.1 206.3 37.3 210.5 37.3 C214.6 37.3 217.5 34.1 217.5 30.1 C217.4 26.2 214.6 23 210.5 23 L210.5 23 Z" id="Shape"/>
                <path d="M244.2 40.1 C243.2 40.1 242.3 39.5 242.3 38.2 L242.3 30 C242.3 25.2 239.8 23.4 236.1 23.4 C232.9 23.4 230.7 25.5 230.4 29.2 L230.4 36.5 L232.4 36.5 C233.6 36.5 234.2 37.5 234.2 38.4 C234.2 39.3 233.6 40.1 232.4 40.1 L224.4 40.1 C223.2 40.1 222.6 39.3 222.6 38.4 C222.6 37.5 223.2 36.5 224.4 36.5 L226.5 36.5 L226.5 23.6 L224.4 23.6 C223.2 23.6 222.6 22.7 222.6 21.8 C222.6 20.9 223.2 20 224.4 20 L228.4 20 C229.4 20 230.4 20.7 230.4 21.9 L230.4 24.1 C230.8 21.7 233.4 19.6 237 19.6 C242.8 19.6 246.2 22.5 246.2 29.8 L246.2 36.6 L248.2 36.6 C249.4 36.6 250 37.5 250 38.4 C250 39.3 249.4 40.2 248.2 40.2 L244.2 40.2 L244.2 40.1 Z" id="Shape"/>
            </g>
            <path d="M18.2380952 25.9 C17.6666667 26.6 17.8 27.7 18.6 28.3 L24.8095238 33.2 C25.5714286 33.7 26.7 33.6 27.2 32.8 L32.047619 26.5 C32.6190476 25.8 32.5 24.7 31.7 24.1 L25.4761905 19.2 C24.7142857 18.7 23.6 18.8 23 19.6 L18.2380952 25.9 L18.2380952 25.9 Z" id="Shape" opacity="0.65" fill="#FEF9EC"/>
            <path d="M12.2857143 21.3 C11.3333333 21.4 10.7 22.3 10.8 23.2 L11.8095238 31.1 C11.952381 32.1 12.8 32.7 13.8 32.6 L21.5714286 31.6 C22.5238095 31.4 23.2 30.6 23 29.6 L22.047619 21.7 C21.9047619 20.8 21 20.1 20.1 20.3 L12.2857143 21.3 L12.2857143 21.3 Z" id="Shape" opacity="0.65" fill="#FEF9EC"/>
        </g>
    </g>
</svg>
